<?xml version="1.0" encoding="UTF-8" standalone="no"?>
<svg
   xmlns:dc="http://purl.org/dc/elements/1.1/"
   xmlns:cc="http://creativecommons.org/ns#"
   xmlns:rdf="http://www.w3.org/1999/02/22-rdf-syntax-ns#"
   xmlns:svg="http://www.w3.org/2000/svg"
   xmlns="http://www.w3.org/2000/svg"
   xmlns:sodipodi="http://sodipodi.sourceforge.net/DTD/sodipodi-0.dtd"
   xmlns:inkscape="http://www.inkscape.org/namespaces/inkscape"
   version="1.1"
   width="625.19384765625"
   height="145.69175720214844"
   viewBox="0 0 625.19384765625 145.69175720214844"
   id="svg28"
   sodipodi:docname="十年老字號_www.ssjjss.com.svg"
   inkscape:version="1.0.2-2 (e86c870879, 2021-01-15)">
  <metadata
     id="metadata34">
    <rdf:RDF>
      <cc:Work
         rdf:about="">
        <dc:format>image/svg+xml</dc:format>
        <dc:type
           rdf:resource="http://purl.org/dc/dcmitype/StillImage" />
      </cc:Work>
    </rdf:RDF>
  </metadata>
  <defs
     id="defs32" />
  <sodipodi:namedview
     pagecolor="#ffffff"
     bordercolor="#666666"
     borderopacity="1"
     objecttolerance="10"
     gridtolerance="10"
     guidetolerance="10"
     inkscape:pageopacity="0"
     inkscape:pageshadow="2"
     inkscape:window-width="820"
     inkscape:window-height="480"
     id="namedview30"
     showgrid="false"
     inkscape:zoom="1.7594543"
     inkscape:cx="312.59692"
     inkscape:cy="72.845879"
     inkscape:window-x="0"
     inkscape:window-y="0"
     inkscape:window-maximized="0"
     inkscape:current-layer="g26" />
  <g
     id="g26">
    <g
       transform="translate(0,0)"
       id="g8">
      <path
         fill="#000000"
         d="M103.20 69.90L103.20 69.90Q101.55 69.30 97.80 67.50Q94.05 65.70 88.65 65.10L88.65 65.10Q83.10 64.35 77.40 64.43Q71.70 64.50 66.15 65.40L66.15 65.40Q66 70.95 65.47 76.50Q64.95 82.05 64.20 86.55L64.20 86.55Q63.30 90.30 62.55 94.95Q61.80 99.60 60.75 105.15Q59.70 110.70 58.80 114.08Q57.90 117.45 57 119.10L57 119.10Q56.55 119.55 54.30 122.03Q52.05 124.50 51.30 126.15L51.30 126.15L50.55 126Q52.35 121.80 52.88 118.58Q53.40 115.35 54.15 108.15L54.15 108.15Q54.30 105.15 54.52 94.50Q54.75 83.85 54.90 67.35L54.90 67.35Q45 69.60 36.98 73.28Q28.95 76.95 24.75 81.15L24.75 81.15Q23.10 82.35 17.93 79.80Q12.75 77.25 10.20 77.10L10.20 77.10Q9.45 76.95 8.40 76.43Q7.35 75.90 6.90 75.30Q6.45 74.70 6.90 74.18Q7.35 73.65 9.30 73.35L9.30 73.35Q14.55 72.45 21.38 71.10Q28.20 69.75 31.95 68.40L31.95 68.40Q34.20 67.50 40.57 66.08Q46.95 64.65 54.90 63.60L54.90 63.60Q54.90 60.75 54.98 53.48Q55.05 46.20 55.20 45.15L55.20 45.15Q55.20 40.05 54.38 34.88Q53.55 29.70 51.60 28.35L51.60 28.35Q51.15 28.05 51.07 27.08Q51 26.10 51.15 25.13Q51.30 24.15 51.90 23.63Q52.50 23.10 53.40 23.55L53.40 23.55Q57.30 25.20 63.90 29.40Q70.50 33.60 69.45 35.55L69.45 35.55Q68.25 37.65 67.35 42.15Q66.45 46.65 66.45 50.85L66.45 50.85Q66.30 51.90 66.22 56.10Q66.15 60.30 66.15 62.10L66.15 62.10Q73.95 61.20 81.38 60.98Q88.80 60.75 95.40 61.35L95.40 61.35Q96.60 61.35 99 62.33Q101.40 63.30 103.35 64.72Q105.30 66.15 105.45 67.50Q105.60 68.85 103.20 69.90Z"
         id="path6" />
    </g>
    <g
       transform="translate(125.03876953125001,0)"
       id="g12">
      <path
         fill="#000000"
         d="M49.65 27.30L49.65 27.30Q47.40 31.80 45.38 35.25Q43.35 38.70 41.85 40.35L41.85 40.35Q38.55 43.80 36 45.98Q33.45 48.15 30.60 49.50L30.60 49.50Q35.10 46.65 38.02 40.28Q40.95 33.90 42.30 26.55L42.30 26.55Q42.45 25.35 41.55 23.40Q40.65 21.45 41.25 21.30L41.25 21.30Q42 20.85 43.80 21.23Q45.60 21.60 47.40 23.10L47.40 23.10Q48.75 24.15 49.57 24.90Q50.40 25.65 49.65 27.30ZM56.40 41.40L56.40 41.40L58.20 42.45Q58.20 42.30 58.35 41.85Q58.50 41.40 58.65 41.25L58.65 41.25Q58.20 41.25 57.45 41.33Q56.70 41.40 56.40 41.40ZM103.65 78.60L103.65 78.60Q104.10 78.75 104.25 79.28Q104.40 79.80 104.02 80.40Q103.65 81 102.83 81.30Q102 81.60 100.80 81.30L100.80 81.30Q89.85 78.90 81.67 78.15Q73.50 77.40 66.45 78.60L66.45 78.60Q66.15 80.85 66.08 82.80Q66 84.75 66 85.95L66 85.95Q65.55 94.20 65.40 102Q65.25 109.80 65.25 110.25L65.25 110.25Q64.50 113.55 63.15 116.85Q61.80 120.15 60.22 122.63Q58.65 125.10 57.60 126.38Q56.55 127.65 56.85 127.05L56.85 127.05Q58.50 121.95 59.02 117.22Q59.55 112.50 59.25 108.97Q58.95 105.45 58.35 101.10Q57.75 96.75 57.75 95.25L57.75 95.25Q57.60 91.95 57.60 88.72Q57.60 85.50 57.60 80.70L57.60 80.70Q51.30 82.35 45.82 84.45Q40.35 86.55 36.60 88.65L36.60 88.65Q32.85 90.60 27.68 94.13Q22.50 97.65 21 97.50L21 97.50Q19.50 97.20 16.95 95.85Q14.40 94.50 13.65 93.45L13.65 93.45Q13.05 92.70 13.65 92.47Q14.25 92.25 16.20 92.03Q18.15 91.80 19.88 91.50Q21.60 91.20 22.95 90.75L22.95 90.75Q27 88.95 38.32 84.90Q49.65 80.85 57.45 78.60L57.45 78.60Q57.45 72.60 57.45 69.68Q57.45 66.75 57.45 62.10L57.45 62.10Q53.85 64.20 51.15 65.63Q48.45 67.05 47.10 67.50L47.10 67.50Q48.15 66.30 51.98 63.30Q55.80 60.30 54.60 60.30L54.60 60.30Q53.85 60.30 48.82 61.05Q43.80 61.80 44.70 59.70L44.70 59.70Q46.65 59.10 49.35 57.90Q52.05 56.70 57.60 54.15L57.60 54.15L57.60 50.25Q57.60 49.65 57.07 48.08Q56.55 46.50 56.55 46.05L56.55 46.05Q56.10 46.20 55.73 46.35Q55.35 46.50 54.90 46.65L54.90 46.65Q55.35 46.05 55.65 45.75Q55.95 45.45 56.25 45.15L56.25 45.15Q55.95 44.55 55.50 43.20Q55.05 41.85 55.05 41.40L55.05 41.40Q51.60 41.40 49.50 40.65Q47.40 39.90 48.60 39L48.60 39Q51 36.90 57.60 33.83Q64.20 30.75 69.30 29.40L69.30 29.40Q70.35 28.95 72.38 29.40Q74.40 29.85 76.27 30.75Q78.15 31.65 78.52 32.63Q78.90 33.60 77.25 34.35L77.25 34.35Q71.85 35.85 67.95 38.40Q64.05 40.95 60.15 43.80L60.15 43.80Q62.85 45.30 65.17 47.03Q67.50 48.75 68.40 49.95L68.40 49.95Q69.60 49.95 71.10 50.40Q72.60 50.85 73.58 51.60Q74.55 52.35 74.25 53.17Q73.95 54 72 54.75L72 54.75Q71.10 54.90 70.20 55.20Q69.30 55.50 68.25 56.10L68.25 56.10Q68.10 57.75 67.50 65.25Q66.90 72.75 66.60 76.80L66.60 76.80Q72.60 76.20 79.58 75.60Q86.55 75 89.85 75.60L89.85 75.60Q90.90 75.75 95.40 76.28Q99.90 76.80 103.65 78.60ZM52.50 73.80L52.50 73.80Q53.85 74.55 53.25 75.38Q52.65 76.20 51.15 76.65L51.15 76.65Q48.60 77.10 46.35 78.15Q44.10 79.20 34.35 83.85L34.35 83.85Q40.65 79.05 42.75 77.03Q44.85 75 44.85 75L44.85 75Q45 74.10 43.42 72.68Q41.85 71.25 41.85 70.65L41.85 70.65Q41.85 69.75 45.45 70.65Q49.05 71.55 52.50 73.80Z"
         id="path10" />
    </g>
    <g
       transform="translate(250.07753906250002,0)"
       id="g16">
      <path
         fill="#000000"
         d="M59.70 73.35L59.70 73.35Q60.60 71.70 63 67.72Q65.40 63.75 66.60 61.80L66.60 61.80Q65.40 62.25 64.20 62.93Q63 63.60 60.75 64.80L60.75 64.80Q60.45 66.90 60.07 70.13Q59.70 73.35 59.70 73.35ZM92.85 117.90L92.85 117.90Q93.75 119.10 93.60 120Q93.45 120.90 91.35 120.90L91.35 120.90Q88.50 120.90 84.75 120.83Q81 120.75 76.42 120.75Q71.85 120.75 67.95 120.45Q64.05 120.15 63 119.70L63 119.70Q59.70 118.05 56.77 115.88Q53.85 113.70 53.85 110.70L53.85 110.70Q53.85 107.70 53.48 101.78Q53.10 95.85 52.80 93L52.80 93Q50.85 95.55 49.65 96.90Q48.45 98.25 47.40 99.45L47.40 99.45Q46.35 100.50 45.45 102.38Q44.55 104.25 43.05 104.85L43.05 104.85Q41.40 105.15 34.88 111.45Q28.35 117.75 27.45 118.50L27.45 118.50L27 117.90Q29.25 115.95 34.35 110.40Q39.45 104.85 42.75 100.20L42.75 100.20Q43.05 99.45 45.45 95.70Q47.85 91.95 49.80 89.10L49.80 89.10Q49.20 88.50 49.65 87.68Q50.10 86.85 51.45 86.70L51.45 86.70Q52.05 85.50 54.60 81.45Q57.15 77.40 58.65 75.15L58.65 75.15Q49.05 77.25 38.40 80.78Q27.75 84.30 22.20 87.45L22.20 87.45Q21.15 87.90 17.40 90.67Q13.65 93.45 11.70 92.85L11.70 92.85Q8.85 91.80 6.90 90.38Q4.95 88.95 4.20 87.60L4.20 87.60Q3.30 86.25 3.52 85.80Q3.75 85.35 5.10 85.80L5.10 85.80Q7.50 86.40 10.57 86.70Q13.65 87 17.85 85.95L17.85 85.95Q19.50 85.50 33 80.85Q46.50 76.20 55.20 74.40L55.20 74.40Q55.35 72.75 55.57 70.95Q55.80 69.15 55.95 67.20L55.95 67.20Q49.50 70.50 44.32 72.75Q39.15 75 36.90 75.15L36.90 75.15L36.60 74.55Q37.95 74.25 44.55 70.65Q51.15 67.05 53.70 65.25L53.70 65.25Q52.05 65.55 47.77 65.18Q43.50 64.80 42.15 64.20L42.15 64.20Q40.50 63.45 39.52 62.25Q38.55 61.05 39.90 60.60L39.90 60.60Q40.65 60.15 43.65 58.20Q46.65 56.25 47.70 55.95L47.70 55.95Q48.30 55.50 50.85 54.60Q53.40 53.70 56.85 52.50L56.85 52.50Q57 39 56.32 29.33Q55.65 19.65 53.70 18.75L53.70 18.75Q50.40 16.80 51.38 16.35Q52.35 15.90 54.60 15.90L54.60 15.90Q55.65 15.90 60 18.98Q64.35 22.05 64.80 22.35L64.80 22.35Q66 22.95 66.60 24.53Q67.20 26.10 66.30 27.15L66.30 27.15Q65.25 28.35 63.97 32.85Q62.70 37.35 62.70 40.95L62.70 40.95Q62.70 42 62.55 44.17Q62.40 46.35 62.10 50.70L62.10 50.70Q63.45 50.25 64.50 50.10Q65.55 49.95 66.30 49.95L66.30 49.95Q68.25 49.80 69.83 50.25Q71.40 50.70 72.30 51.75L72.30 51.75Q72.75 50.70 73.13 49.95Q73.50 49.20 73.80 48.60L73.80 48.60Q74.25 46.95 75.75 43.88Q77.25 40.80 77.25 39.90L77.25 39.90Q77.25 38.40 78.22 36.83Q79.20 35.25 80.85 35.55L80.85 35.55Q82.35 35.55 83.92 36.67Q85.50 37.80 86.40 38.85L86.40 38.85Q87 39.45 86.63 40.65Q86.25 41.85 85.05 42.90L85.05 42.90Q84.15 43.65 83.25 45.08Q82.35 46.50 80.10 49.95L80.10 49.95Q79.35 50.70 74.47 58.95Q69.60 67.20 66.60 72.30L66.60 72.30Q76.65 70.80 84.38 70.43Q92.10 70.05 102.30 70.80L102.30 70.80Q103.35 70.80 104.63 71.63Q105.90 72.45 106.72 73.50Q107.55 74.55 107.47 75.22Q107.40 75.90 106.05 75.60L106.05 75.60Q102.60 74.85 88.35 74.03Q74.10 73.20 68.25 73.50L68.25 73.50Q67.80 73.50 66.90 73.58Q66 73.65 65.55 73.80L65.55 73.80Q62.55 78.60 60.38 81.83Q58.20 85.05 56.25 88.05L56.25 88.05Q58.20 89.10 59.32 89.70Q60.45 90.30 60.75 90.60L60.75 90.60Q61.65 91.50 61.95 92.40Q62.25 93.30 61.35 94.35L61.35 94.35Q61.05 94.65 60.75 95.78Q60.45 96.90 60.30 98.25L60.30 98.25Q63.15 97.95 65.10 96.75Q67.05 95.55 68.40 94.05L68.40 94.05Q69.30 93 70.58 92.55Q71.85 92.10 73.20 92.25L73.20 92.25Q74.55 92.25 76.05 92.78Q77.55 93.30 78.75 94.05L78.75 94.05Q79.80 95.10 79.88 96.08Q79.95 97.05 78.30 97.80L78.30 97.80Q74.10 99.45 68.92 100.88Q63.75 102.30 60 101.25L60 101.25Q59.85 103.65 59.77 105.38Q59.70 107.10 59.70 107.85L59.70 107.85Q59.70 111.30 62.47 113.03Q65.25 114.75 70.05 114.45L70.05 114.45Q71.85 114.30 77.85 113.92Q83.85 113.55 85.50 114.30L85.50 114.30Q88.20 115.50 90.15 116.33Q92.10 117.15 92.85 117.90Z"
         id="path14" />
    </g>
    <g
       transform="translate(375.11630859375003,0)"
       id="g20">
      <path
         fill="#000000"
         d="M57.60 30.15L57.60 30.15Q51.60 30.75 46.57 33.38Q41.55 36 41.40 36.30L41.40 36.30Q42.45 34.20 43.88 32.63Q45.30 31.05 47.32 29.33Q49.35 27.60 49.95 26.78Q50.55 25.95 50.25 25.20L50.25 25.20Q49.95 24.60 48.45 23.25Q46.95 21.90 46.27 21.23Q45.60 20.55 45.75 20.03Q45.90 19.50 47.70 19.50L47.70 19.50Q49.50 19.35 52.35 20.48Q55.20 21.60 57.38 23.40Q59.55 25.20 59.85 27Q60.15 28.80 57.60 30.15ZM29.10 41.55L29.10 41.55Q29.25 42.75 29.40 43.80Q29.55 44.85 29.55 45.75L29.55 45.75Q33.45 43.95 38.85 41.85Q44.25 39.75 51.90 37.73Q59.55 35.70 68.33 35.10Q77.10 34.50 85.05 36.30L85.05 36.30Q91.65 37.65 95.02 39.30Q98.40 40.95 94.20 43.35L94.20 43.35Q89.70 43.05 82.95 45.53Q76.20 48 69.60 50.70L69.60 50.70Q69.90 49.35 72.15 47.85Q74.40 46.35 77.55 44.40Q80.70 42.45 81.75 41.33Q82.80 40.20 81.15 39.60L81.15 39.60Q72.75 36.60 64.05 37.73Q55.35 38.85 48.07 42.38Q40.80 45.90 35.55 49.95Q30.30 54 28.35 56.55L28.35 56.55Q28.20 56.55 28.05 56.55L28.05 56.55Q27.15 58.95 26.85 60.98Q26.55 63 27 65.85L27 65.85Q27.15 67.95 25.72 70.05Q24.30 72.15 22.35 71.25L22.35 71.25Q19.95 70.20 18.82 67.20Q17.70 64.20 18.60 59.85L18.60 59.85Q19.05 55.80 20.55 51.67Q22.05 47.55 23.93 44.40Q25.80 41.25 27.22 40.35Q28.65 39.45 29.10 41.55ZM71.40 60.90L71.40 60.90Q69 63.45 63.82 68.93Q58.65 74.40 60.45 75.30L60.45 75.30Q63 76.35 65.02 78.68Q67.05 81 68.55 84.45L68.55 84.45Q72.90 84.30 76.27 84.22Q79.65 84.15 83.40 84.45L83.40 84.45Q88.35 85.80 91.05 87.53Q93.75 89.25 94.27 90.75Q94.80 92.25 93.67 92.85Q92.55 93.45 91.05 92.70L91.05 92.70Q86.10 90 80.63 88.58Q75.15 87.15 69.60 87L69.60 87Q72.60 97.50 69.22 109.58Q65.85 121.65 57.30 126L57.30 126Q56.25 124.50 47.70 116.40Q39.15 108.30 39.15 105.75L39.15 105.75Q42.75 108.30 49.20 110.85Q55.65 113.40 57 111.90L57 111.90Q58.05 110.40 59.17 102Q60.30 93.60 60 87.45L60 87.45Q52.65 88.20 46.35 90.83Q40.05 93.45 36.30 97.05L36.30 97.05Q35.70 97.50 33.23 97.50Q30.75 97.50 28.43 97.05Q26.10 96.60 25.57 95.63Q25.05 94.65 27.60 93.30L27.60 93.30Q34.95 90.60 42 88.35Q49.05 86.10 59.85 85.05L59.85 85.05Q59.55 83.85 59.32 83.03Q59.10 82.20 58.80 81.60L58.80 81.60Q56.70 78.15 56.10 74.85Q55.50 71.55 56.85 68.70L56.85 68.70Q57 68.10 58.05 65.40Q59.10 62.70 59.63 61.05Q60.15 59.40 59.85 58.65Q59.55 57.90 58.20 58.65L58.20 58.65Q55.35 59.85 50.55 63.45Q45.75 67.05 43.95 69L43.95 69Q43.50 69.30 42.15 68.25Q40.80 67.20 39.60 65.55Q38.40 63.90 38.25 62.55Q38.10 61.20 39.75 60.90L39.75 60.90Q41.40 62.25 42.90 62.55Q44.40 62.85 47.10 61.50L47.10 61.50Q49.95 59.85 56.10 57.53Q62.25 55.20 63.60 55.20L63.60 55.20Q65.40 55.20 69.15 57.15Q72.90 59.10 71.40 60.90Z"
         id="path18" />
    </g>
    <g
       transform="translate(500.15507812500005,0)"
       id="g24">
      <path
         fill="#000000"
         d="M90.90 63.60L90.90 63.60Q91.95 63.30 91.80 62.63Q91.65 61.95 90.52 61.20Q89.40 60.45 87.97 60Q86.55 59.55 85.65 59.55L85.65 59.55Q84.90 60.15 82.80 61.20Q80.70 62.25 77.25 63.60L77.25 63.60Q77.25 61.80 77.25 61.05Q77.25 60.30 77.25 58.95L77.25 58.95Q76.65 58.50 74.92 56.93Q73.20 55.35 72.15 55.05L72.15 55.05Q70.65 54.30 70.58 54.75Q70.50 55.20 71.40 57.45L71.40 57.45Q71.70 58.65 72.15 60.68Q72.60 62.70 73.05 65.10L73.05 65.10Q69.15 66.30 67.20 66.97Q65.25 67.65 64.80 67.95L64.80 67.95Q63.90 69.75 64.88 70.05Q65.85 70.35 65.85 70.35L65.85 70.35Q66.30 70.20 69.22 69.22Q72.15 68.25 73.35 67.95L73.35 67.95Q73.95 71.85 74.70 74.18Q75.45 76.50 76.65 76.95L76.65 76.95Q78.75 77.85 85.88 77.10Q93 76.35 95.40 75.60L95.40 75.60Q96.15 75.30 96.08 74.63Q96 73.95 95.17 73.20Q94.35 72.45 93.30 72Q92.25 71.55 91.65 71.70L91.65 71.70Q89.55 72 84.90 72.45Q80.25 72.90 78.75 71.70L78.75 71.70Q77.85 70.95 77.55 69.68Q77.25 68.40 77.25 66.90L77.25 66.90Q81 65.55 84.52 64.72Q88.05 63.90 90.90 63.60ZM114.75 108.75L114.75 108.75Q116.10 109.35 116.02 110.70Q115.95 112.05 114.45 112.65L114.45 112.65Q110.70 114.15 101.92 114.30Q93.15 114.45 88.50 112.20L88.50 112.20Q85.80 110.70 84.52 107.85Q83.25 105 82.95 101.55Q82.65 98.10 82.58 92.40Q82.50 86.70 82.50 84.45L82.50 84.45Q82.35 83.70 81.30 81.38Q80.25 79.05 81.90 78.90L81.90 78.90Q84.45 80.25 88.20 82.35Q91.95 84.45 91.65 85.95L91.65 85.95Q91.05 88.35 89.47 95.17Q87.90 102 88.80 103.65L88.80 103.65Q89.70 105.60 95.70 106.80Q101.70 108 103.05 106.65L103.05 106.65Q104.10 105.30 103.50 102.83Q102.90 100.35 101.40 98.70L101.40 98.70Q100.65 97.95 100.58 97.35Q100.50 96.75 100.80 96.67Q101.10 96.60 101.63 96.90Q102.15 97.20 102.75 97.95L102.75 97.95Q104.85 100.95 108.90 104.40Q112.95 107.85 114.75 108.75ZM26.55 48L26.55 48Q27.90 50.25 29.17 52.80Q30.45 55.35 31.35 57.60L31.35 57.60Q35.55 55.05 40.27 48.53Q45 42 44.10 41.55L44.10 41.55Q41.40 40.05 35.77 42.38Q30.15 44.70 26.55 48ZM31.95 63.60L31.65 62.70L30.75 63.75Q28.35 61.05 26.32 57.30Q24.30 53.55 19.95 45.75L19.95 45.75Q19.95 45.75 19.72 45.08Q19.50 44.40 19.50 43.73Q19.50 43.05 19.95 42.60Q20.40 42.15 21.75 42.15L21.75 42.15Q22.05 42.45 22.50 42.83Q22.95 43.20 23.85 44.10L23.85 44.10Q31.65 39.45 41.85 38.10Q52.05 36.75 54.90 41.55L54.90 41.55Q54.90 42.45 53.63 43.73Q52.35 45 49.80 47.03Q47.25 49.05 45.38 50.40Q43.50 51.75 42.60 52.95L42.60 52.95Q42.60 52.95 43.27 53.17Q43.95 53.40 44.55 54Q45.15 54.60 45.45 55.42Q45.75 56.25 45.15 57.45L45.15 57.45Q42.90 57.45 38.48 59.93Q34.05 62.40 31.95 63.60L31.95 63.60ZM63 57.60L63 57.60Q63.90 60.75 63.22 65.70Q62.55 70.65 61.27 74.93Q60 79.20 58.13 85.50Q56.25 91.80 56.25 93.45L56.25 93.45Q56.25 96.60 53.70 103.13Q51.15 109.65 49.65 112.50L49.65 112.50Q49.20 113.25 48.60 113.70Q48 114.15 47.48 114.15Q46.95 114.15 46.80 113.70Q46.65 113.25 46.95 112.50L46.95 112.50Q47.10 111.30 50.48 101.70Q53.85 92.10 54.60 89.25L54.60 89.25Q55.95 83.25 57.30 73.72Q58.65 64.20 58.35 59.85L58.35 59.85Q57.90 60 57.45 60.30Q57 60.60 56.85 60.90L56.85 60.90Q56.10 61.35 55.13 60.98Q54.15 60.60 53.55 59.78Q52.95 58.95 53.25 58.13Q53.55 57.30 54.90 57L54.90 57Q57.15 56.10 62.10 54.75Q67.05 53.40 74.40 51.45L74.40 51.45Q74.25 51.30 74.10 51.15Q73.95 51 73.95 50.85L73.95 50.85Q72.90 48.45 72.38 47.25Q71.85 46.05 71.55 44.70L71.55 44.70Q71.40 43.95 72.22 44.40Q73.05 44.85 73.50 44.25L73.50 44.25Q74.25 42.45 73.35 34.65Q72.45 26.85 70.05 25.50L70.05 25.50Q70.05 25.50 69.67 25.13Q69.30 24.75 69.08 24.45Q68.85 24.15 69 23.78Q69.15 23.40 70.05 23.10L70.05 23.10Q73.05 24 75.83 25.35Q78.60 26.70 79.05 27.75L79.05 27.75Q79.50 29.40 79.65 32.33Q79.80 35.25 79.65 38.55L79.65 38.55Q81.90 37.65 84 37.20Q86.10 36.75 87.15 37.05L87.15 37.05Q88.95 37.65 89.55 38.25Q90.15 38.85 89.55 39.75L89.55 39.75Q88.80 40.80 88.13 41.70Q87.45 42.60 86.40 42.45L86.40 42.45Q84.30 41.85 82.65 41.92Q81 42 79.35 42.60L79.35 42.60Q78.90 45.60 78.38 47.85Q77.85 50.10 77.25 50.85L77.25 50.85Q82.95 49.50 86.70 48.83Q90.45 48.15 92.25 48.45L92.25 48.45Q97.05 49.20 99.67 50.03Q102.30 50.85 102 51.90L102 51.90Q101.55 52.80 92.77 55.28Q84 57.75 83.55 58.05L83.55 58.05Q82.80 58.05 82.42 57.90Q82.05 57.75 81.97 57.45Q81.90 57.15 82.13 56.85Q82.35 56.55 82.95 56.40L82.95 56.40Q83.40 56.10 84.75 55.42Q86.10 54.75 87.38 53.92Q88.65 53.10 89.25 52.42Q89.85 51.75 89.25 51.75L89.25 51.75Q85.35 50.85 77.55 52.73Q69.75 54.60 63 57.60ZM75.90 90.45L75.90 90.45Q75.90 95.55 70.80 103.58Q65.70 111.60 61.05 113.85L61.05 113.85Q60.15 114 59.55 114.08Q58.95 114.15 58.80 114.08Q58.65 114 59.02 113.55Q59.40 113.10 60.60 112.50L60.60 112.50Q63.75 110.40 67.72 101.33Q71.70 92.25 70.50 89.40L70.50 89.40Q69.75 87.45 69.30 86.40Q68.85 85.35 70.80 85.95L70.80 85.95Q73.35 86.25 74.63 87.15Q75.90 88.05 75.90 90.45ZM52.05 67.80L52.05 67.80Q50.10 68.40 46.80 69.60Q43.50 70.80 42.30 72.30L42.30 72.30Q41.25 73.35 38.32 75.38Q35.40 77.40 35.40 78L35.40 78Q35.40 79.05 35.63 79.28Q35.85 79.50 37.80 79.35L37.80 79.35Q38.85 79.20 40.20 78.75Q41.55 78.30 42.75 78.60L42.75 78.60Q43.95 78.75 45.82 80.93Q47.70 83.10 47.55 84.15L47.55 84.15Q46.95 86.70 46.05 93.45Q45.15 100.20 44.55 104.33Q43.95 108.45 43.20 112.28Q42.45 116.10 41.55 117.90L41.55 117.90Q40.20 120 38.55 120.83Q36.90 121.65 36 119.85L36 119.85Q33.90 116.40 27.30 109.95Q20.70 103.50 19.35 102.15L19.35 102.15Q18.30 101.10 18 100.35Q17.70 99.60 18.15 99.45Q18.60 99.30 19.43 99.67Q20.25 100.05 21.15 101.10L21.15 101.10Q23.25 103.35 28.88 106.20Q34.50 109.05 36.15 107.85L36.15 107.85Q37.80 106.65 39.15 95.70Q40.50 84.75 39.30 84.15L39.30 84.15Q37.50 83.25 35.17 84.60Q32.85 85.95 31.95 86.40L31.95 86.40Q29.70 87.15 29.10 84.75Q28.50 82.35 29.40 80.25L29.40 80.25Q30 78.15 33.38 75.22Q36.75 72.30 37.35 71.70L37.35 71.70Q37.95 70.95 38.10 70.28Q38.25 69.60 37.95 69.38Q37.65 69.15 36.82 69.30Q36 69.45 34.95 70.20L34.95 70.20Q34.35 70.35 30.15 72.38Q25.95 74.40 22.20 76.50Q18.45 78.60 15.52 80.70Q12.60 82.80 11.70 84.45L11.70 84.45Q9 88.35 6.38 87.15Q3.75 85.95 2.40 83.70L2.40 83.70Q1.50 82.35 3.23 81.75Q4.95 81.15 6.90 82.05L6.90 82.05Q9.45 79.80 25.27 72.08Q41.10 64.35 44.40 63.60L44.40 63.60Q46.20 63 48 63.38Q49.80 63.75 51.15 64.58Q52.50 65.40 52.80 66.38Q53.10 67.35 52.05 67.80Z"
         id="path22" />
    </g>
  </g>
</svg>
