<?xml version="1.0" encoding="UTF-8" standalone="no"?>
<svg
   xmlns:dc="http://purl.org/dc/elements/1.1/"
   xmlns:cc="http://creativecommons.org/ns#"
   xmlns:rdf="http://www.w3.org/1999/02/22-rdf-syntax-ns#"
   xmlns:svg="http://www.w3.org/2000/svg"
   xmlns="http://www.w3.org/2000/svg"
   xmlns:sodipodi="http://sodipodi.sourceforge.net/DTD/sodipodi-0.dtd"
   xmlns:inkscape="http://www.inkscape.org/namespaces/inkscape"
   version="1.1"
   width="500.15507812500005"
   height="145.69175720214844"
   viewBox="0 0 500.15507812500005 145.69175720214844"
   id="svg24"
   sodipodi:docname="品質保障_www.ssjjss.com.svg"
   inkscape:version="1.0.2-2 (e86c870879, 2021-01-15)">
  <metadata
     id="metadata30">
    <rdf:RDF>
      <cc:Work
         rdf:about="">
        <dc:format>image/svg+xml</dc:format>
        <dc:type
           rdf:resource="http://purl.org/dc/dcmitype/StillImage" />
      </cc:Work>
    </rdf:RDF>
  </metadata>
  <defs
     id="defs28" />
  <sodipodi:namedview
     pagecolor="#ffffff"
     bordercolor="#666666"
     borderopacity="1"
     objecttolerance="10"
     gridtolerance="10"
     guidetolerance="10"
     inkscape:pageopacity="0"
     inkscape:pageshadow="2"
     inkscape:window-width="820"
     inkscape:window-height="480"
     id="namedview26"
     showgrid="false"
     inkscape:zoom="2.1993178"
     inkscape:cx="250.07755"
     inkscape:cy="72.845879"
     inkscape:window-x="0"
     inkscape:window-y="0"
     inkscape:window-maximized="0"
     inkscape:current-layer="g22" />
  <g
     id="g22">
    <g
       transform="translate(0,0)"
       id="g8">
      <path
         fill="#000000"
         d="M44.85 49.50L44.85 49.50Q45.30 52.95 46.42 56.25Q47.55 59.55 48.60 60.75L48.60 60.75Q48.90 60.60 49.13 60.45Q49.35 60.30 49.80 60.15L49.80 60.15Q52.65 58.65 59.25 51.08Q65.85 43.50 66.45 43.20L66.45 43.20Q67.95 41.55 67.35 40.65Q66.75 39.75 64.95 39.75L64.95 39.75Q58.95 39.75 54.23 42.30Q49.50 44.85 44.85 49.50ZM48.30 67.35L48.30 67.35Q48 67.35 47.55 67.13Q47.10 66.90 46.80 66.45L46.80 66.45Q44.10 63.15 40.05 54.08Q36 45 34.95 40.80L34.95 40.80Q34.95 40.80 34.80 40.20Q34.65 39.60 34.73 39Q34.80 38.40 35.10 38.03Q35.40 37.65 36.15 37.95L36.15 37.95Q39 38.25 41.25 39.60Q43.50 40.95 44.10 43.65L44.10 43.65Q45.45 43.20 50.63 40.95Q55.80 38.70 57.45 39.15L57.45 39.15Q59.40 39.60 61.50 39.08Q63.60 38.55 65.85 37.95L65.85 37.95Q67.80 37.35 69.67 37.58Q71.55 37.80 74.10 39.75L74.10 39.75Q77.55 42.15 78.75 43.50Q79.95 44.85 78.15 45.75L78.15 45.75Q76.50 46.35 72.15 49.13Q67.80 51.90 67.05 52.35L67.05 52.35Q64.65 53.10 65.25 54.08Q65.85 55.05 67.65 56.55L67.65 56.55Q68.85 57.45 66.45 59.25Q64.05 61.05 58.20 64.43Q52.35 67.80 47.85 70.35Q43.35 72.90 40.95 75.45L40.95 75.45Q38.85 77.25 37.88 77.55Q36.90 77.85 37.20 76.88Q37.50 75.90 38.70 74.63Q39.90 73.35 41.55 72.60L41.55 72.60Q43.05 71.55 44.70 70.28Q46.35 69 48.30 67.35ZM49.35 64.20L49.35 64.20Q49.35 64.80 49.20 65.47Q49.05 66.15 49.05 66.75L49.05 66.75Q49.35 66.30 50.32 65.40Q51.30 64.50 51.60 64.20L51.60 64.20Q51.90 63.75 50.92 63.98Q49.95 64.20 49.35 64.20ZM66.75 85.35L66.75 85.35Q67.50 87.75 68.63 90Q69.75 92.25 71.25 94.95L71.25 94.95Q72.30 95.10 73.42 94.72Q74.55 94.35 76.50 92.85L76.50 92.85Q79.95 89.70 85.20 82.95Q90.45 76.20 88.65 76.65L88.65 76.65Q86.55 76.80 79.95 79.65Q73.35 82.50 66.75 85.35ZM73.80 99.90L73.80 99.90Q73.95 100.80 73.80 101.63Q73.65 102.45 73.20 102.97Q72.75 103.50 72.22 103.42Q71.70 103.35 71.40 102.75L71.40 102.75Q70.80 101.85 68.25 99.30Q65.70 96.75 64.95 94.50L64.95 94.50Q64.50 93.15 61.72 86.78Q58.95 80.40 58.80 78.60L58.80 78.60Q58.80 78.60 58.72 78Q58.65 77.40 58.65 77.03Q58.65 76.65 58.88 76.72Q59.10 76.80 59.70 77.55L59.70 77.55Q62.10 78 63.52 78.53Q64.95 79.05 65.70 81.15L65.70 81.15Q67.80 80.40 76.72 77.85Q85.65 75.30 87.60 74.85L87.60 74.85Q90.45 74.10 92.25 73.88Q94.05 73.65 96.45 75.45L96.45 75.45Q98.25 76.65 99.60 77.63Q100.95 78.60 101.92 79.58Q102.90 80.55 102.97 81.45Q103.05 82.35 101.85 83.10L101.85 83.10Q98.25 84.75 95.55 85.80Q92.85 86.85 92.17 87.15Q91.50 87.45 90.97 87.90Q90.45 88.35 89.10 90.45L89.10 90.45Q88.20 91.35 88.42 91.88Q88.65 92.40 90.75 93.15L90.75 93.15Q92.10 93.45 93.08 94.28Q94.05 95.10 94.35 95.92Q94.65 96.75 94.20 97.28Q93.75 97.80 92.55 97.80L92.55 97.80Q90 97.50 83.63 98.03Q77.25 98.55 73.50 99.45L73.50 99.45Q73.50 99.45 73.58 99.60Q73.65 99.75 73.80 99.90ZM52.35 85.20L52.35 85.20Q52.80 84.30 52.73 84.68Q52.65 85.05 52.13 86.33Q51.60 87.60 50.77 89.25Q49.95 90.90 49.20 92.25L49.20 92.25Q46.20 96.30 44.25 98.78Q42.30 101.25 40.50 103.13Q38.70 105 37.05 105.45Q35.40 105.90 34.20 104.85L34.20 104.85Q31.50 102.45 31.65 101.40Q31.80 100.35 34.35 97.20L34.35 97.20Q37.35 93.30 39.23 89.25Q41.10 85.20 38.55 85.50L38.55 85.50Q36 85.65 34.57 86.47Q33.15 87.30 31.35 88.35L31.35 88.35Q31.35 88.35 30.97 88.35Q30.60 88.35 30.38 88.35Q30.15 88.35 30.15 87.90Q30.15 87.45 30.60 86.70L30.60 86.70Q32.70 84.45 33.98 83.63Q35.25 82.80 37.35 82.80L37.35 82.80Q38.40 82.80 40.50 81.68Q42.60 80.55 45 81.60L45 81.60Q47.55 82.80 48.23 84.08Q48.90 85.35 48.38 86.70Q47.85 88.05 46.05 90.45Q44.25 92.85 43.50 94.20L43.50 94.20Q42.75 95.25 42.75 95.47Q42.75 95.70 43.35 95.25Q43.95 94.80 44.77 94.13Q45.60 93.45 46.80 92.40L46.80 92.40Q48.15 90.90 49.42 89.17Q50.70 87.45 52.35 85.20ZM33.90 110.25L33.90 110.25Q34.80 111.30 35.25 111.83Q35.70 112.35 35.70 112.72Q35.70 113.10 35.25 113.10Q34.80 113.10 33.75 112.80L33.75 112.80Q30.75 111.45 29.17 110.85Q27.60 110.25 26.55 107.55L26.55 107.55Q25.95 105.90 23.47 101.33Q21 96.75 19.57 94.05Q18.15 91.35 17.18 88.80Q16.20 86.25 16.95 85.50L16.95 85.50Q17.25 85.50 18.97 85.58Q20.70 85.65 21.90 85.95Q23.10 86.25 24.15 87.38Q25.20 88.50 25.95 90.75L25.95 90.75Q27.30 95.85 29.85 102.15Q32.40 108.45 33.90 110.25Z"
         id="path6" />
    </g>
    <g
       transform="translate(125.03876953125001,0)"
       id="g12">
      <path
         fill="#000000"
         d="M63.90 56.55L63.90 56.55Q63.75 57.30 62.70 56.93Q61.65 56.55 60.52 55.50Q59.40 54.45 58.65 53.33Q57.90 52.20 58.20 51.90L58.20 51.90Q58.50 51 58.88 46.73Q59.25 42.45 59.25 39.30L59.25 39.30Q58.20 39.75 57.38 39.53Q56.55 39.30 55.80 38.55L55.80 38.55L55.80 38.40Q56.55 37.95 57.30 37.50Q58.05 37.05 58.95 36.45L58.95 36.45Q58.80 35.70 59.02 35.03Q59.25 34.35 59.77 33.90Q60.30 33.45 60.82 33.53Q61.35 33.60 61.80 34.35L61.80 34.35Q66.60 30.15 70.35 25.35Q74.10 20.55 73.65 18.75L73.65 18.75Q73.20 17.25 74.25 16.95Q75.30 16.65 76.88 17.17Q78.45 17.70 79.65 18.53Q80.85 19.35 80.70 20.10L80.70 20.10Q79.50 23.10 71.92 28.95Q64.35 34.80 62.40 36.60L62.40 36.60Q62.70 38.25 63.07 39.98Q63.45 41.70 63.75 43.50L63.75 43.50Q71.25 39.60 81.22 36Q91.20 32.40 99 33.30L99 33.30Q102.30 34.65 103.65 36Q105 37.35 101.85 38.25L101.85 38.25Q99.45 37.95 92.63 37.65Q85.80 37.35 79.50 39.30L79.50 39.30Q81.45 40.65 81.45 42.60Q81.45 44.55 80.25 52.95L80.25 52.95Q79.65 55.05 78.52 57.08Q77.40 59.10 75 61.80L75 61.80L74.25 61.65Q75.15 54.90 75.45 48.83Q75.75 42.75 74.40 41.25L74.40 41.25Q71.55 42.45 69.08 44.25Q66.60 46.05 64.50 48.60L64.50 48.60Q64.65 51.60 64.58 53.70Q64.50 55.80 63.90 56.55ZM82.05 69.45L82.05 69.45Q80.25 71.25 80.40 85.50Q80.55 99.75 80.40 100.65L80.40 100.65Q79.65 102.90 78.90 104.25Q78.15 105.60 77.10 104.85L77.10 104.85Q73.35 102.45 70.65 98.25Q67.95 94.05 68.40 85.80L68.40 85.80Q69.30 85.35 69.97 84.60Q70.65 83.85 70.65 83.25L70.65 83.25Q70.50 82.80 70.35 77.33Q70.20 71.85 69.45 69L69.45 69Q68.70 66.60 58.50 68.03Q48.30 69.45 44.70 72.45L44.70 72.45Q44.25 72.60 43.20 72.53Q42.15 72.45 41.10 72.15Q40.05 71.85 39.98 71.40Q39.90 70.95 41.40 70.35L41.40 70.35Q44.55 68.85 53.77 66.30Q63 63.75 66.15 63.60L66.15 63.60Q66.60 63.45 67.80 62.63Q69 61.80 71.55 62.70L71.55 62.70Q75.15 63.90 79.05 66.15Q82.95 68.40 82.05 69.45ZM59.55 76.35L59.55 76.35Q56.40 77.40 54.45 78.53Q52.50 79.65 51.30 80.85L51.30 80.85Q51.60 79.20 51.60 78.45Q51.60 77.70 50.25 78L50.25 78Q49.35 78 49.05 77.85Q48.75 77.70 48.82 77.33Q48.90 76.95 49.35 76.43Q49.80 75.90 50.40 75.60L50.40 75.60Q51.60 74.55 53.25 73.80Q54.90 73.05 55.65 73.35L55.65 73.35Q55.80 73.35 58.13 74.70Q60.45 76.05 59.55 76.35ZM26.85 45.15L26.85 45.15Q26.70 45.75 26.63 46.28Q26.55 46.80 26.40 47.55L26.40 47.55Q27.90 46.95 37.65 43.65Q47.40 40.35 48.90 40.50L48.90 40.50Q49.80 40.50 50.55 41.03Q51.30 41.55 51.82 42.30Q52.35 43.05 52.35 43.73Q52.35 44.40 51.75 44.55L51.75 44.55Q49.95 44.55 47.40 44.92Q44.85 45.30 42.45 46.05L42.45 46.05Q42.45 46.20 42.45 46.35Q42.45 46.50 42.45 46.95L42.45 46.95Q41.85 49.80 41.55 55.28Q41.25 60.75 41.25 61.80L41.25 61.80Q41.25 62.55 40.42 62.40Q39.60 62.25 38.48 61.43Q37.35 60.60 36.60 59.55Q35.85 58.50 36.15 57.90L36.15 57.90Q36.45 55.80 36.30 52.80Q36.15 49.80 34.95 48.75L34.95 48.75Q34.65 48.75 34.80 48.45Q34.95 48.15 35.40 47.85L35.40 47.85Q32.10 48.75 29.55 49.88Q27 51 25.50 52.50L25.50 52.50Q25.35 52.50 25.20 52.50L25.20 52.50Q22.95 60.15 20.02 65.03Q17.10 69.90 13.20 69.45L13.20 69.45L13.20 68.85Q16.65 68.55 19.27 57.23Q21.90 45.90 20.25 43.50L20.25 43.50Q20.10 43.35 20.02 43.13Q19.95 42.90 19.95 42.75L19.95 42.75Q18 43.80 16.57 44.48Q15.15 45.15 14.10 45.60L14.10 45.60L14.10 45.30Q14.85 44.70 16.20 43.58Q17.55 42.45 19.50 40.80L19.50 40.80Q19.50 40.35 19.72 40.13Q19.95 39.90 20.40 39.90L20.40 39.90Q25.05 35.40 29.10 30.83Q33.15 26.25 33.15 25.50L33.15 25.50Q32.40 23.40 33.75 22.88Q35.10 22.35 37.20 23.10Q39.30 23.85 40.73 24.98Q42.15 26.10 41.70 26.70L41.70 26.70Q40.50 27.45 33.75 32.78Q27 38.10 23.10 40.95L23.10 40.95Q24.60 41.70 25.80 42.98Q27 44.25 26.85 45.15ZM89.55 120.15L89.55 120.15Q90.60 122.70 90.30 124.50Q90 126.30 87.90 125.70L87.90 125.70Q85.50 124.65 83.85 123.75Q82.20 122.85 78.90 120.30L78.90 120.30Q78.45 118.05 76.72 116.10Q75 114.15 71.40 113.10L71.40 113.10Q68.70 111.45 67.50 110.33Q66.30 109.20 66.38 108.67Q66.45 108.15 67.65 108.15Q68.85 108.15 70.80 108.75L70.80 108.75Q71.55 108.90 74.92 109.58Q78.30 110.25 80.85 111.30Q83.40 112.35 85.72 114.53Q88.05 116.70 89.55 120.15ZM66.45 95.55L66.45 95.55Q62.40 97.35 51.23 108.90Q40.05 120.45 39.15 121.20L39.15 121.20Q36.15 123 32.25 124.28Q28.35 125.55 24.15 125.40L24.15 125.40L24.15 124.80Q27.60 124.20 31.50 121.72Q35.40 119.25 38.55 116.25L38.55 116.25Q42 112.65 46.80 107.40Q51.60 102.15 52.80 99.75L52.80 99.75Q48.90 100.80 44.32 103.28Q39.75 105.75 38.10 107.55L38.10 107.55Q37.65 107.85 36.60 107.17Q35.55 106.50 34.57 105.38Q33.60 104.25 33.75 103.28Q33.90 102.30 35.55 102L35.55 102Q36 101.85 36.67 101.47Q37.35 101.10 38.70 100.50L38.70 100.50Q38.55 100.05 38.55 99.90Q38.55 99.75 38.55 99.60L38.55 99.60Q38.25 97.65 38.40 87.75Q38.55 77.85 38.85 74.10L38.85 74.10Q38.25 72.15 39 72.22Q39.75 72.30 41.10 73.72Q42.45 75.15 43.35 76.80Q44.25 78.45 43.95 79.50L43.95 79.50Q43.50 80.85 43.13 87Q42.75 93.15 42.75 97.50L42.75 97.50Q46.95 93.75 49.73 90.38Q52.50 87 51 87L51 87Q50.10 87 49.50 86.85Q48.90 86.70 48.82 86.40Q48.75 86.10 49.73 85.35Q50.70 84.60 53.40 83.40L53.40 83.40Q54.60 82.95 56.17 83.10Q57.75 83.25 59.10 83.78Q60.45 84.30 61.05 84.97Q61.65 85.65 60.90 86.10L60.90 86.10Q59.10 86.85 52.05 91.88Q45 96.90 42.75 99.45L42.75 99.45L42.75 100.05Q45.75 99.15 51.98 95.55Q58.20 91.95 60 90.60L60 90.60Q62.55 91.05 65.77 92.63Q69 94.20 66.45 95.55Z"
         id="path10" />
    </g>
    <g
       transform="translate(250.07753906250002,0)"
       id="g16">
      <path
         fill="#000000"
         d="M60.30 43.50L60.30 43.50Q60.60 44.40 62.40 49.42Q64.20 54.45 64.95 56.85L64.95 56.85Q65.10 56.55 65.33 56.40Q65.55 56.25 65.70 56.25L65.70 56.25Q68.10 54.15 73.50 47.85Q78.90 41.55 81 38.40L81 38.40Q82.20 36.30 81.60 35.40Q81 34.50 78.60 34.80L78.60 34.80Q72.90 35.25 68.33 37.73Q63.75 40.20 60.30 43.50ZM82.65 71.40L82.65 71.40Q82.05 72.15 80.85 73.72Q79.65 75.30 80.10 78L80.10 78Q80.55 81.15 80.55 97.58Q80.55 114 80.25 116.40L80.25 116.40Q80.10 117.45 79.58 118.58Q79.05 119.70 78.30 120.45Q77.55 121.20 76.80 121.13Q76.05 121.05 75.60 119.85L75.60 119.85Q74.10 116.55 65.77 107.33Q57.45 98.10 56.85 97.35L56.85 97.35Q56.40 96.90 56.48 96.67Q56.55 96.45 57 96.53Q57.45 96.60 58.05 97.05Q58.65 97.50 59.40 98.25L59.40 98.25Q60.90 99.75 65.63 101.33Q70.35 102.90 71.40 103.20L71.40 103.20Q72.45 103.65 72.90 103.42Q73.35 103.20 73.35 101.25L73.35 101.25Q73.35 100.50 73.50 89.03Q73.65 77.55 73.50 71.10L73.50 71.10Q66.75 73.50 58.57 77.03Q50.40 80.55 49.20 81.90L49.20 81.90Q46.50 85.05 44.55 85.65Q42.60 86.25 39.90 84L39.90 84Q39 83.25 36.30 81.53Q33.60 79.80 35.70 79.50L35.70 79.50Q39 79.95 40.57 80.33Q42.15 80.70 46.05 78L46.05 78Q48.60 76.20 54.23 75Q59.85 73.80 60.75 73.35L60.75 73.35Q63.15 71.85 66.30 70.65Q69.45 69.45 73.35 68.55L73.35 68.55Q73.20 66.60 72.97 65.33Q72.75 64.05 72.60 63.60L72.60 63.60Q72 63 71.63 62.55Q71.25 62.10 71.10 61.80L71.10 61.80Q66.30 64.50 62.17 67.20Q58.05 69.90 56.10 71.55L56.10 71.55Q55.05 72.30 54.52 72.30Q54 72.30 54 71.78Q54 71.25 54.52 70.50Q55.05 69.75 56.10 69.15L56.10 69.15Q56.55 68.70 62.55 64.43Q68.55 60.15 70.35 59.25L70.35 59.25Q68.85 59.55 67.65 59.63Q66.45 59.70 65.70 59.40L65.70 59.40Q65.85 59.70 65.92 59.93Q66 60.15 66 60.45L66 60.45Q66 62.25 65.10 62.40Q64.20 62.55 63 61.05L63 61.05Q61.20 58.80 56.63 49.95Q52.05 41.10 51.60 37.50L51.60 37.50L52.80 36Q54.60 36.75 56.17 37.42Q57.75 38.10 58.80 39.30L58.80 39.30Q63 36 70.80 34.05Q78.60 32.10 82.35 31.95L82.35 31.95Q84.15 31.65 85.72 31.58Q87.30 31.50 90.45 33.75L90.45 33.75Q94.35 36.30 95.55 38.63Q96.75 40.95 93.60 41.40L93.60 41.40Q91.35 41.55 87.67 44.25Q84 46.95 83.85 47.10L83.85 47.10Q83.10 47.55 82.35 48.15Q81.60 48.75 83.10 49.80L83.10 49.80Q84.75 51 84.97 52.20Q85.20 53.40 83.55 54.45L83.55 54.45Q82.95 54.60 80.85 55.80Q78.75 57 78 57.60L78 57.60Q79.05 59.40 80.25 61.88Q81.45 64.35 82.35 66.60L82.35 66.60Q84.75 66.15 88.42 65.70Q92.10 65.25 93 65.10L93 65.10Q99.90 63.75 102.08 63.90Q104.25 64.05 109.80 67.20L109.80 67.20Q111.45 68.10 112.27 69.15Q113.10 70.20 113.02 70.95Q112.95 71.70 112.05 71.93Q111.15 72.15 110.10 71.85L110.10 71.85Q106.95 70.50 98.70 69.97Q90.45 69.45 82.95 69.60L82.95 69.60Q82.95 70.05 82.88 70.50Q82.80 70.95 82.65 71.40ZM105 91.65L105 91.65Q105.15 93.75 104.40 95.17Q103.65 96.60 101.55 95.85L101.55 95.85Q98.25 94.65 94.80 88.88Q91.35 83.10 90.90 82.80L90.90 82.80Q90.90 82.80 90.60 82.58Q90.30 82.35 90.52 82.13Q90.75 81.90 91.58 81.83Q92.40 81.75 94.20 81.90L94.20 81.90Q96.90 82.50 100.72 85.80Q104.55 89.10 105 91.65ZM59.85 89.85L59.85 89.85Q58.80 90.75 57.52 93.60Q56.25 96.45 55.95 98.25L55.95 98.25Q55.65 100.95 54.82 101.85Q54 102.75 51.60 101.55L51.60 101.55Q47.55 99.60 46.65 96.15Q45.75 92.70 46.95 88.50L46.95 88.50Q46.95 88.50 47.10 87.90Q47.25 87.30 47.48 87.08Q47.70 86.85 48.15 87.08Q48.60 87.30 49.20 88.50L49.20 88.50Q49.20 90.45 50.48 92.10Q51.75 93.75 53.10 92.40L53.10 92.40Q54.15 91.20 56.70 89.55Q59.25 87.90 59.85 87.60L59.85 87.60Q60.45 86.85 60.90 86.78Q61.35 86.70 61.35 87.08Q61.35 87.45 60.97 88.20Q60.60 88.95 59.85 89.85ZM29.25 106.80L29.25 106.80Q29.25 107.55 29.10 108.08Q28.95 108.60 28.57 108.83Q28.20 109.05 27.75 108.90Q27.30 108.75 27 108.15L27 108.15Q25.20 105 23.77 101.40Q22.35 97.80 23.70 96.75L23.70 96.75Q25.05 95.40 25.35 87.22Q25.65 79.05 25.35 70.20L25.35 70.20Q21.90 75.75 17.40 82.35Q12.90 88.95 11.70 89.85L11.70 89.85Q10.80 90.15 7.88 93.97Q4.95 97.80 3.45 98.25L3.45 98.25Q2.85 98.40 2.55 98.25Q2.25 98.10 2.25 97.72Q2.25 97.35 2.63 96.83Q3 96.30 4.05 95.70L4.05 95.70Q6.75 93.75 12.60 82.80Q18.45 71.85 18.75 69.15L18.75 69.15Q18.90 68.10 21.90 60.90Q24.90 53.70 26.85 48.83Q28.80 43.95 30.38 39.23Q31.95 34.50 31.35 33.30L31.35 33.30Q30.30 30.75 30.15 29.17Q30 27.60 31.65 28.05L31.65 28.05Q33.30 28.50 36.90 31.42Q40.50 34.35 40.95 34.80L40.95 34.80Q42.30 35.55 42.75 36.83Q43.20 38.10 42 39.45L42 39.45Q40.35 40.80 34.88 51.83Q29.40 62.85 28.50 64.95L28.50 64.95Q29.55 70.35 29.32 88.28Q29.10 106.20 29.25 106.80Z"
         id="path14" />
    </g>
    <g
       transform="translate(375.11630859375003,0)"
       id="g20">
      <path
         fill="#000000"
         d="M75.30 22.95L75.30 22.95Q72.15 21.90 68.02 24Q63.90 26.10 63.30 26.10L63.30 26.10Q65.40 24.45 66.83 23.17Q68.25 21.90 68.70 20.85L68.70 20.85Q68.70 20.25 67.88 19.35Q67.05 18.45 65.92 17.17Q64.80 15.90 64.95 15.30Q65.10 14.70 67.05 14.85L67.05 14.85Q68.70 15 71.02 15.98Q73.35 16.95 75.08 18.23Q76.80 19.50 77.02 20.78Q77.25 22.05 75.30 22.95ZM105.75 55.65L105.75 55.65Q103.05 54.45 97.05 53.33Q91.05 52.20 82.58 52.28Q74.10 52.35 64.13 55.05Q54.15 57.75 44.85 64.05L44.85 64.05Q43.80 64.80 42.15 64.65Q40.50 64.50 39.07 63.75Q37.65 63 37.50 62.18Q37.35 61.35 39.15 61.20L39.15 61.20Q40.05 60.90 48.45 58.20Q56.85 55.50 63.30 53.70L63.30 53.70Q64.35 52.80 65.47 51.83Q66.60 50.85 67.50 49.95Q68.40 49.05 68.63 48.60Q68.85 48.15 68.25 48.60L68.25 48.60Q68.25 48.60 66.08 49.42Q63.90 50.25 60.75 51.90L60.75 51.90Q59.55 49.80 59.25 48.38Q58.95 46.95 59.10 46.05Q59.25 45.15 59.63 44.85Q60 44.55 60 44.55L60 44.55Q61.05 43.80 63.38 42Q65.70 40.20 68.02 38.33Q70.35 36.45 71.25 35.17Q72.15 33.90 70.80 33.90L70.80 33.90Q68.85 34.80 64.42 36.75Q60 38.70 58.95 39L58.95 39Q58.20 39 56.48 38.92Q54.75 38.85 53.48 38.48Q52.20 38.10 52.35 37.42Q52.50 36.75 55.05 36L55.05 36Q57.15 35.10 67.50 31.35Q77.85 27.60 79.05 27L79.05 27Q79.65 26.55 81.45 26.85Q83.25 27.15 85.13 27.90Q87 28.65 87.60 29.63Q88.20 30.60 86.85 31.50L86.85 31.50Q83.55 31.95 79.65 33.90Q75.75 35.85 73.95 38.55L73.95 38.55Q74.70 38.40 76.05 37.88Q77.40 37.35 77.85 37.80L77.85 37.80Q78.15 37.95 79.50 38.63Q80.85 39.30 82.05 40.20Q83.25 41.10 83.33 42Q83.40 42.90 81.75 43.50L81.75 43.50Q79.80 43.95 75.38 47.48Q70.95 51 69.60 52.05L69.60 52.05Q78.75 49.80 86.10 49.05Q93.45 48.30 98.55 49.65L98.55 49.65Q100.95 50.25 103.13 50.85Q105.30 51.45 106.95 52.13Q108.60 52.80 108.52 53.70Q108.45 54.60 105.75 55.65ZM77.85 69.60L77.85 69.60Q76.05 69.90 70.95 73.13Q65.85 76.35 64.20 76.20L64.20 76.20Q66 75.15 67.05 73.88Q68.10 72.60 67.65 72.30L67.65 72.30Q66.45 72 65.63 71.03Q64.80 70.05 66 69.75L66 69.75Q67.80 69.15 71.40 67.88Q75 66.60 76.35 67.05L76.35 67.05Q76.95 67.05 77.40 67.43Q77.85 67.80 78.15 68.18Q78.45 68.55 78.38 69Q78.30 69.45 77.85 69.60ZM77.25 81.75L77.25 81.75Q77.25 83.40 77.17 85.05Q77.10 86.70 77.10 88.80L77.10 88.80Q83.40 87.45 88.72 86.93Q94.05 86.40 97.20 87L97.20 87Q100.05 88.35 103.72 90.08Q107.40 91.80 103.65 93.45L103.65 93.45Q97.65 90.90 90.90 90.45Q84.15 90 76.95 91.05L76.95 91.05Q76.65 96.75 76.20 103.20Q75.75 109.65 75.30 113.25L75.30 113.25Q74.40 119.40 72.83 124.35Q71.25 129.30 69.60 131.10L69.60 131.10L68.85 131.10Q68.85 130.50 69.60 126.83Q70.35 123.15 70.50 119.55L70.50 119.55Q70.65 111 70.72 104.10Q70.80 97.20 70.65 92.40L70.65 92.40Q64.20 93.90 58.65 96.08Q53.10 98.25 50.10 100.20L50.10 100.20Q49.65 100.35 48 99.75Q46.35 99.15 44.77 98.17Q43.20 97.20 42.90 96.53Q42.60 95.85 44.55 95.85L44.55 95.85Q47.10 95.55 57.15 93.15Q67.20 90.75 70.50 90.15L70.50 90.15Q70.35 87.90 70.13 86.70Q69.90 85.50 69.60 84.90L69.60 84.90Q67.95 85.65 63.38 88.05Q58.80 90.45 57.90 90.45L57.90 90.45Q58.95 89.70 64.20 86.47Q69.45 83.25 68.85 83.25L68.85 83.25Q67.95 83.25 67.13 82.95Q66.30 82.65 65.77 82.20Q65.25 81.75 65.33 81.30Q65.40 80.85 66.15 80.55L66.15 80.55Q69.15 78.90 72.60 77.33Q76.05 75.75 76.65 76.05L76.65 76.05Q76.65 76.05 77.25 76.35Q77.85 76.65 78.75 77.40L78.75 77.40Q80.40 75.45 82.20 68.55Q84 61.65 82.65 61.65L82.65 61.65Q76.35 61.20 69.83 63.23Q63.30 65.25 60 67.95L60 67.95Q60.90 71.55 62.32 75.83Q63.75 80.10 64.65 81L64.65 81Q64.95 81.45 65.02 82.05Q65.10 82.65 64.65 83.18Q64.20 83.70 63.45 83.70Q62.70 83.70 61.80 83.10L61.80 83.10Q60 81.75 56.25 74.25Q52.50 66.75 52.35 66.45L52.35 66.45Q51.30 65.25 51.45 64.65Q51.60 64.05 52.50 63.90Q53.40 63.75 54.60 63.98Q55.80 64.20 57 64.65L57 64.65Q57.15 64.65 57.23 64.65Q57.30 64.65 57.60 64.65L57.60 64.65Q58.50 64.35 68.33 61.50Q78.15 58.65 82.35 58.20L82.35 58.20Q83.40 57.90 86.02 58.73Q88.65 59.55 91.35 60.83Q94.05 62.10 95.47 63.23Q96.90 64.35 95.85 64.65L95.85 64.65Q92.70 65.10 89.33 71.18Q85.95 77.25 85.05 80.70L85.05 80.70Q84.60 81.90 83.33 82.13Q82.05 82.35 80.70 81.15L80.70 81.15Q80.55 81.15 80.47 81.22Q80.40 81.30 80.25 81.30L80.25 81.30Q79.50 81.30 78.75 81.38Q78 81.45 77.25 81.75ZM24.30 50.40L24.30 50.40Q23.85 51 23.47 55.73Q23.10 60.45 22.95 65.70L22.95 65.70Q26.10 68.85 28.50 70.58Q30.90 72.30 32.10 71.55L32.10 71.55Q32.40 67.95 30.07 61.13Q27.75 54.30 26.55 52.95L26.55 52.95Q25.50 51.75 26.40 50.70Q27.30 49.65 27.60 49.35L27.60 49.35Q28.35 47.70 30.07 42.60Q31.80 37.50 30.45 37.65L30.45 37.65Q27.30 37.65 23.77 39.38Q20.25 41.10 18 43.05L18 43.05Q17.55 43.20 16.72 43.05Q15.90 42.90 15.22 42.45Q14.55 42 14.55 41.63Q14.55 41.25 15.45 40.95L15.45 40.95Q16.95 40.50 23.63 37.65Q30.30 34.80 31.35 34.35L31.35 34.35Q31.65 34.05 33.07 33.15Q34.50 32.25 35.40 32.85L35.40 32.85Q36 33.15 36.98 33.75Q37.95 34.35 38.92 35.10Q39.90 35.85 40.27 36.53Q40.65 37.20 40.05 37.80L40.05 37.80Q38.40 38.85 34.27 44.85Q30.15 50.85 30.75 51.75L30.75 51.75Q32.40 53.70 35.17 60.45Q37.95 67.20 37.95 76.20L37.95 76.20Q37.35 78.30 35.92 80.03Q34.50 81.75 33.75 81L33.75 81Q33.30 80.55 29.55 76.95Q25.80 73.35 24.75 72L24.75 72Q24.30 71.25 23.85 70.43Q23.40 69.60 22.95 68.55L22.95 68.55L22.95 69Q22.95 70.20 22.35 90.53Q21.75 110.85 21.90 112.05L21.90 112.05Q21.90 113.55 21.52 115.95Q21.15 118.35 20.55 118.50L20.55 118.50Q20.10 118.50 19.50 118.80Q18.90 119.10 18.45 117.90L18.45 117.90Q17.40 115.50 16.35 111.75Q15.30 108 15.75 107.40L15.75 107.40Q16.65 105.90 17.25 103.50Q17.85 101.10 18.30 96.15L18.30 96.15Q18.60 90.30 18.68 70.20Q18.75 50.10 18.45 48.75L18.45 48.75Q18 47.25 17.93 45.60Q17.85 43.95 18.75 44.70L18.75 44.70Q20.85 46.05 22.65 47.63Q24.45 49.20 24.30 50.40Z"
         id="path18" />
    </g>
  </g>
</svg>
